HIERARCHY
ROOT Hips
{
  OFFSET 196.326 95.9168 97.7182
  CHANNELS 6 Xposition Yposition Zposition Zrotation Xrotation Yrotation
  JOINT LeftUpLeg
  {
    OFFSET 8.64259 1.95398 -2.38835
    CHANNELS 3 Zrotation Xrotation Yrotation
    JOINT LeftLeg
    {
      OFFSET 43.7702 0 0
      CHANNELS 3 Zrotation Xrotation Yrotation
      JOINT LeftFoot
      {
        OFFSET 40.6238 0 0
        CHANNELS 3 Zrotation Xrotation Yrotation
        JOINT LeftToeBase
        {
          OFFSET 12.7242 0 0
          CHANNELS 3 Zrotation Xrotation Yrotation
          End Site
          {
            OFFSET 0 0 0
          }
        }
      }
    }
  }
  JOINT RightUpLeg
  {
    OFFSET -8.2249 1.95398 -2.59336
    CHANNELS 3 Zrotation Xrotation Yrotation
    JOINT RightLeg
    {
      OFFSET 43.5653 0 0
      CHANNELS 3 Zrotation Xrotation Yrotation
      JOINT RightFoot
      {
        OFFSET 40.6238 0 0
        CHANNELS 3 Zrotation Xrotation Yrotation
        JOINT RightToeBase
        {
          OFFSET 12.7242 0 0
          CHANNELS 3 Zrotation Xrotation Yrotation
          End Site
          {
            OFFSET 0 0 0
          }
        }
      }
    }
  }
  JOINT Spine
  {
    OFFSET 0.165834 0.87714 6.61349
    CHANNELS 3 Zrotation Xrotation Yrotation
    JOINT Spine1
    {
      OFFSET 7.38963 1.71661e-005 0
      CHANNELS 3 Zrotation Xrotation Yrotation
      JOINT Spine2
      {
        OFFSET 11.9445 1.14441e-005 0
        CHANNELS 3 Zrotation Xrotation Yrotation
        JOINT Spine3
        {
          OFFSET 14.7254 4.19617e-005 0
          CHANNELS 3 Zrotation Xrotation Yrotation
          JOINT Spine4
          {
            OFFSET 10.9679 0 0
            CHANNELS 3 Zrotation Xrotation Yrotation
            JOINT RightShoulder
            {
              OFFSET 2.46616 -1.6653 3.69651
              CHANNELS 3 Zrotation Xrotation Yrotation
              JOINT RightArm
              {
                OFFSET 13.0012 0 0
                CHANNELS 3 Zrotation Xrotation Yrotation
                JOINT RightForeArm
                {
                  OFFSET 28.7848 1.52588e-005 0
                  CHANNELS 3 Zrotation Xrotation Yrotation
                  JOINT RightHand
                  {
                    OFFSET 26.5688 1.52588e-005 0
                    CHANNELS 3 Zrotation Xrotation Yrotation
                    End Site
                    {
                      OFFSET 0 0 0
                    }
                  }
                }
              }
            }
            JOINT LeftShoulder
            {
              OFFSET 2.38034 -1.29275 -3.75231
              CHANNELS 3 Zrotation Xrotation Yrotation
              JOINT LeftArm
              {
                OFFSET 16.3182 6.10351e-005 0
                CHANNELS 3 Zrotation Xrotation Yrotation
                JOINT LeftForeArm
                {
                  OFFSET 27.0901 0 0
                  CHANNELS 3 Zrotation Xrotation Yrotation
                  JOINT LeftHand
                  {
                    OFFSET 24.5451 1.52588e-005 0
                    CHANNELS 3 Zrotation Xrotation Yrotation
                    End Site
                    {
                      OFFSET 0 0 0
                    }
                  }
                }
              }
            }
            JOINT Neck
            {
              OFFSET 5.0226 -0.0266342 0
              CHANNELS 3 Zrotation Xrotation Yrotation
              JOINT Head
              {
                OFFSET 6.69363 2.86102e-005 0
                CHANNELS 3 Zrotation Xrotation Yrotation
                End Site
                {
                  OFFSET 0 0 0
                }
              }
            }
          }
        }
      }
    }
  }
}
MOTION
Frames:	15
Frame Time:	0.0416667
92.0306 93.9618 30.4624 89.1919 -36.1547 89.8231 -170.561 5.79179 93.4515 -44.1707 17.9778 -0.727026 47.8448 -3.94139 8.36737 57.6169 28.0396 -8.68725 178.719 23.49 92.616 -32.2692 9.80608 0.477729 67.5203 -2.03094 -1.06905 26.3943 -2.05896 22.2904 -0.480864 6.97363 -89.9375 12.928 -0.92473 0.236879 1.25734 -0.913424 0.277346 -21.2805 -0.95316 -0.0520152 -1.26782 -0.953187 -0.0520283 81.9339 -50.211 -112.944 19.8506 -8.93997 18.6475 -9.78799 -18.3062 -38.9821 1.11089 -0.121094 4.86829 -99.5902 -40.2669 60.7121 -27.2605 3.0643 10.3395 6.78438 2.60867 -47.5823 12.1274 0.892954 3.34937 14.4143 -0.436138 -3.01859 -6.20432 0.391853 4.09562 
82.8888 92.4621 22.7002 86.7121 -34.0798 88.9624 -173.404 0.802645 92.6488 -36.6465 25.4756 1.07557 52.0801 -0.530431 10.3652 70.0323 36.7076 -13.8995 179.666 30.8169 91.4366 -27.2365 10.0546 0.667184 62.936 -0.999416 -0.476482 37.9951 0.865993 19.9048 -0.849604 7.02601 -89.9449 12.825 -1.66072 0.308368 1.1551 -1.64553 0.381171 -21.3885 -1.6766 -0.205149 -1.3759 -1.67659 -0.205152 80.5614 -53.1689 -113.861 17.92 -2.68264 19.5953 -7.08809 -13.9051 -32.5805 -3.46989 -0.429629 7.12972 -100.428 -39.4563 59.0046 -20.9685 0.19276 2.73207 7.35632 2.85801 -47.1346 14.784 1.12586 3.68617 14.6639 -0.425545 -4.82606 -6.10856 0.886605 4.17647 
72.7939 92.9109 14.3108 85.1036 -32.5395 86.9448 -173.626 2.04385 90.3279 -26.4921 25.0906 0.321388 62.2422 12.7405 22.1843 66.8489 30.5045 -22.0696 -179.465 29.738 88.8659 -12.6697 14.2766 0.389974 67.0301 -2.23895 -1.21712 48.2252 3.08826 16.9906 -0.938183 7.20762 -89.6319 12.4706 -1.68853 0.935367 0.800408 -1.64573 1.00878 -21.7432 -1.89158 0.384508 -1.73058 -1.89158 0.384503 79.6746 -54.8123 -114.513 18.7993 -1.77066 18.7844 -5.39556 -9.94188 -34.0147 -1.85682 -0.282789 5.39058 -100.864 -38.1338 57.6801 -15.6356 -0.489344 -4.65553 6.42487 3.22671 -42.7987 13.6488 1.03979 3.64144 12.3755 -1.55891 -7.98244 -3.20987 0.585656 4.35483 
63.8424 94.7312 6.87011 85.7155 -36.2084 86.8708 -173.124 6.16936 87.2319 -22.8852 17.664 -0.937372 63.487 12.7315 21.0083 57.1237 22.2133 -25.6626 -179.911 28.3892 89.4141 -18.73 14.3302 0.0645071 62.7174 -2.06832 -1.13781 43.7066 2.15678 17.8501 -0.550788 7.41431 -89.4711 12.0479 -0.845273 1.14688 0.376704 -0.793969 1.18296 -22.1581 -1.15086 0.839842 -2.1454 -1.15085 0.839841 78.679 -54.8045 -115.914 18.8564 -7.21801 15.1376 -7.71431 -14.3034 -38.5607 4.9477 0.160539 3.93702 -101.657 -39.1418 56.8915 -14.2334 -0.631227 -1.67048 8.38519 4.76836 -45.9189 13.1858 1.09077 4.2541 11.9392 -1.4115 -6.24435 -1.78187 0.256446 2.71993 
56.5971 96.6913 1.15335 86.118 -39.725 88.0219 -173.04 10.4425 88.3365 -19.6202 15.3176 -1.33551 58.2756 4.32553 14.1336 52.7164 20.3095 -20.7797 179.021 25.6534 90.8801 -35.9665 12.8648 -0.863505 59.0544 -1.80866 -0.983522 42.9607 1.9062 16.5151 -0.18892 7.33149 -89.5977 12.2109 -0.184904 0.823518 0.53967 -0.148484 0.830865 -21.9939 -0.423857 0.729889 -1.98121 -0.423844 0.729888 79.2132 -53.7628 -115.56 18.1173 -11.2479 10.732 -10.9915 -15.8689 -45.1842 6.9892 0.260508 4.26968 -100.66 -39.4224 58.6185 -20.2296 1.57682 4.69078 4.7332 1.00602 -43.5245 16.6734 1.31837 4.01392 11.3463 -0.630938 -3.61364 -2.11648 0.338375 2.37984 
49.687 96.2003 -3.58146 87.0552 -40.7989 88.4777 -172.302 14.6986 88.6527 -19.0645 15.9524 -2.50402 57.8795 4.38349 16.6013 48.5466 16.6647 -23.127 176.885 18.7526 89.9495 -49.4881 11.8804 -1.81635 56.9851 -1.99413 -1.10895 45.5431 2.3998 15.7462 0.0454917 7.22971 -89.6173 12.4141 0.272294 0.732537 0.742972 0.304285 0.719842 -21.7905 0.0395633 0.78052 -1.77789 0.0395518 0.780505 80.1078 -52.543 -114.746 16.1461 -13.3245 6.81381 -13.4205 -14.073 -52.5075 1.00899 -0.145666 3.51791 -100.024 -39.6385 59.7378 -25.9883 3.40797 11.0206 4.07217 1.37076 -39.1237 12.9048 0.836545 2.56268 11.3942 -0.953425 -2.45718 -3.35783 -0.296065 1.7201 
41.9984 94.594 -8.30249 86.5052 -42.4171 85.9194 -171.911 21.6347 87.1297 -21.4472 12.0379 -3.21475 61.0662 5.70473 13.6899 37.41 8.36338 -28.7258 176.711 9.23522 86.8633 -48.8745 3.91037 -3.91042 53.7131 -0.591291 -0.156319 49.379 3.24308 16.9163 0.514256 7.13793 -89.3967 12.5913 1.30927 1.05275 0.920617 1.35433 0.994091 -21.614 0.932352 1.39753 -1.60138 0.932375 1.39753 80.0572 -51.9214 -115.056 12.8489 -12.6396 2.2648 -15.2618 -13.0369 -56.3774 -6.11245 -0.590504 4.22222 -99.5201 -40.1758 60.7839 -30.57 3.98666 14.221 3.45083 2.70121 -31.8901 12.5583 0.943808 3.48042 12.3389 -2.20512 -1.99188 -4.03572 -1.61939 1.71322 
32.8274 93.7126 -13.9961 84.8797 -46.3659 84.0383 -172.253 26.3991 88.49 -16.1501 8.28134 -2.87012 56.7122 0.863633 9.43455 56.5427 24.1249 -17.6004 179.012 1.833 87.1452 -38.0465 -8.62888 -6.81746 59.292 -0.996162 -0.504898 57.1301 5.15422 17.4325 1.09208 7.12609 -89.4413 12.6111 2.43593 0.834 0.942227 2.47029 0.725918 -21.6045 2.07265 1.52774 -1.59185 2.07264 1.52774 79.5052 -49.7618 -116.722 9.61832 -11.8715 -3.72809 -15.3971 -13.6517 -55.2922 -6.02157 -0.609068 4.89313 -99.4828 -41.8666 61.5724 -34.4888 1.33951 16.4084 2.95154 0.130075 -25.5788 13.4157 1.11143 4.30527 12.342 -2.12963 0.33411 -3.50253 -2.12777 1.18 
23.1124 94.273 -20.9272 83.9095 -45.9609 86.505 -173.282 27.3993 91.2597 -6.36287 5.78972 -1.51515 60.0543 4.63769 12.6105 58.201 29.7322 -5.62692 178.175 2.32926 91.3042 -26.6726 1.48608 -2.56938 72.1967 -4.61101 -2.3186 46.3285 3.15366 22.1631 1.1088 7.36352 -90.0187 12.1517 2.19515 -0.280555 0.482535 2.18069 -0.376939 -22.0673 2.17794 0.392477 -2.05461 2.17796 0.392488 79.145 -48.8344 -117.639 3.25696 -12.8656 -9.82574 -16.0318 -15.6643 -56.254 -3.72641 -0.486145 6.39655 -101.095 -43.4668 59.7584 -36.8504 2.38895 16.3531 1.50345 -2.07526 -23.1051 10.5145 0.70731 2.68571 13.6232 -1.29596 1.71121 -1.76231 -1.57986 2.82591 
15.1783 95.2173 -25.8891 83.2235 -43.3379 84.9059 -171.353 25.0126 89.468 -14.4379 2.84091 -2.60533 55.6099 3.22057 12.4306 57.7531 27.3576 -10.9454 178.707 6.814 91.8033 -23.7828 6.01896 -1.62511 73.6201 -4.20226 -2.05526 39.5839 1.36143 21.3593 0.780905 7.39436 -89.9973 12.0873 1.5536 -0.165278 0.417308 1.54483 -0.233515 -22.1252 1.53145 0.309411 -2.11252 1.53142 0.309393 78.4859 -50.4581 -117.931 2.06032 -13.0548 -7.3689 -16.3475 -16.0736 -55.2092 -4.65989 -0.539473 5.33214 -101.6 -42.8496 58.7109 -38.4494 3.59819 15.8134 2.29501 1.6122 -25.3232 7.7547 0.466692 1.91307 13.9505 -1.73 -0.0222277 -1.70732 -1.53241 3.29892 
9.08273 95.4366 -30.469 83.2429 -41.341 84.5982 -170.116 21.1864 89.3186 -34.1411 5.98899 -2.15397 55.2396 3.14037 13.1873 54.8417 25.1548 -9.72484 179.355 11.8506 92.1745 -24.6211 8.82137 -1.48756 74.2682 -3.92995 -1.91662 42.2882 1.99764 20.9797 0.544748 7.3346 -89.9563 12.2044 1.10342 -0.0367281 0.533959 1.10072 -0.0852616 -22.005 1.06343 0.296635 -1.99231 1.06343 0.296633 78.7745 -51.9827 -116.886 6.09373 -12.46 0.48673 -14.6434 -13.2269 -55.6724 -4.05072 -0.451384 4.13061 -101.011 -41.9554 59.2215 -35.8959 5.43935 14.6055 3.53826 4.52562 -31.1701 7.62241 0.424456 1.50656 14.9145 -2.24637 -1.82788 -1.78474 -1.5301 3.80308 
3.98906 94.853 -35.1677 82.839 -38.8008 85.7727 -170.435 12.1684 91.4111 -39.5604 9.36704 -1.05714 55.0718 3.88998 14.8053 51.7041 22.0911 -10.5517 178.93 18.3649 92.4686 -28.3484 7.95319 -0.197333 73.5128 -3.84401 -1.90703 46.5119 2.69875 16.8879 0.0522705 7.19906 -90.1504 12.4775 0.0324074 -0.302839 0.80646 0.0190595 -0.303985 -21.7284 0.121923 -0.279102 -1.71577 0.12194 -0.279096 79.354 -52.4025 -115.885 8.56009 -14.5492 5.65862 -13.3463 -14.4663 -53.2379 -3.59974 -0.423094 4.1289 -100.569 -41.667 59.7846 -32.0373 5.15386 12.17 4.04358 3.22439 -36.2622 10.9891 0.603404 1.55892 15.1023 -1.30386 -2.00008 -2.2432 -0.562187 4.23414 
-1.10094 94.4858 -40.1961 82.3596 -33.4507 87.2722 -171.962 2.44666 93.5695 -28.3773 17.6653 0.417803 53.0159 0.744291 10.9182 64.9939 34.0859 -10.219 178.487 24.0369 92.5058 -29.0497 10.7775 1.11574 69.3518 -2.7075 -1.41984 37.012 0.681974 18.1805 -0.598488 7.14809 -90.3267 12.5752 -1.34461 -0.496271 0.904875 -1.36516 -0.436604 -21.6338 -1.1333 -0.87747 -1.62111 -1.13332 -0.877477 78.8336 -54.0395 -115.991 10.687 -12.8279 10.5948 -11.9019 -13.904 -50.874 -2.10446 -0.315821 3.69325 -100.736 -40.2443 58.8781 -27.3019 4.23102 8.05214 5.2144 2.9932 -41.1544 11.9368 0.823504 2.90215 15.9121 -1.30882 -3.00841 -2.52093 -0.271871 4.49768 
-6.75422 94.4618 -46.488 80.4616 -29.7924 87.8294 -172.043 1.13526 93.4063 -18.5444 21.2295 0.490043 58.4719 6.86072 16.408 68.9451 32.9696 -19.9717 177.828 27.3263 90.9544 -21.9486 11.5129 2.54822 62.9119 -1.30388 -0.681802 36.4732 0.458823 15.6431 -0.872686 7.21064 -90.4811 12.4469 -1.9626 -0.73438 0.77727 -1.99301 -0.64727 -21.7653 -1.65115 -1.29039 -1.75265 -1.65115 -1.29038 79.1822 -54.6489 -115.267 11.8014 -10.337 11.068 -10.4553 -13.7005 -47.4892 -1.75241 -0.283256 3.15245 -101.26 -39.5449 57.7191 -21.3769 2.5195 1.9933 7.15472 3.40037 -47.3184 13.5563 0.989738 3.34236 17.7092 -2.22321 -3.92326 -2.3765 -0.833159 4.61487 
-12.3978 94.7272 -52.0355 80.9762 -31.1918 87.8466 -171.867 3.3755 91.0533 -16.337 16.8622 -0.549872 61.5787 11.875 21.7303 64.878 27.9698 -24.7875 178.284 27.3339 89.8752 -17.3674 9.92721 2.12832 59.0603 -0.516996 -0.161963 46.4243 2.22392 11.9134 -0.653704 7.40153 -90.3456 12.0681 -1.46282 -0.530098 0.397903 -1.48473 -0.465197 -22.1413 -1.23589 -0.945277 -2.12862 -1.23588 -0.945274 78.626 -54.9478 -115.933 12.7196 -9.56734 9.34681 -11.057 -15.7885 -44.8646 -0.565104 -0.239854 3.24977 -101.66 -39.6679 57.1396 -17.0529 0.579376 -1.84325 7.19034 1.97066 -51.8146 12.9109 0.963766 3.47725 15.9494 -2.47678 -3.46027 -0.489034 -1.22101 4.01984 
